<mxfile host="app.diagrams.net" modified="2023-04-23T19:50:03.817Z" agent="Mozilla/5.0 (Windows NT 10.0; Win64; x64) AppleWebKit/537.36 (KHTML, like Gecko) Chrome/112.0.0.0 Safari/537.36" version="21.2.1" etag="m2joF1Dbb5ytJFmD3vuG" type="github">
  <diagram name="페이지-1" id="mlsQasOM-HBMbfV3mr7-">
    <mxGraphModel>
      <root>
        <mxCell id="0" />
        <mxCell id="1" parent="0" />
      </root>
    </mxGraphModel>
  </diagram>
</mxfile>
